<svg xmlns="http://www.w3.org/2000/svg" xmlns:xlink="http://www.w3.org/1999/xlink" viewBox="0 0 351 387"><defs><style>.cls-1,.cls-5{fill:#fff;}.cls-1,.cls-18,.cls-19,.cls-20,.cls-21,.cls-22,.cls-23,.cls-7,.cls-8{stroke:#231f20;}.cls-1,.cls-13,.cls-14,.cls-17,.cls-18,.cls-19,.cls-20,.cls-21,.cls-22,.cls-23,.cls-7,.cls-8{stroke-miterlimit:10;}.cls-1,.cls-8{stroke-width:2px;}.cls-2{fill:#39b54a;}.cls-3{font-size:28px;}.cls-11,.cls-3{fill:#231f20;font-family:TimesNewRomanPSMT, Times New Roman;}.cls-4{fill:#bbb;}.cls-6{clip-path:url(#clip-path);}.cls-7{fill:#fff200;}.cls-8{fill:none;}.cls-9{fill:#2d4399;}.cls-10{fill:#ea2128;}.cls-11{font-size:12px;}.cls-12{fill:#603913;}.cls-13{fill:#009444;}.cls-13,.cls-14{stroke:#603913;stroke-width:0.2px;}.cls-14{fill:#006838;}.cls-15{fill:#ebe719;}.cls-16{fill:#eb8d23;}.cls-17{fill:#6e3625;stroke:#3c2415;}.cls-18{fill:#898989;}.cls-18,.cls-20,.cls-21,.cls-22,.cls-23{stroke-width:0.5px;}.cls-19{fill:#808285;stroke-width:0.25px;}.cls-20{fill:#8c8b8b;}.cls-21{fill:#58595b;}.cls-22{fill:#6e6f72;}.cls-23{fill:#8b8b8a;}</style><clipPath id="clip-path" transform="translate(-124.5 -90)"><rect class="cls-1" x="204.5" y="144" width="189" height="104"/></clipPath></defs><polygon class="cls-2" points="45 36 45 0 22.5 14 0 0 0 72 17.25 72 17.25 36 45 36"/><polygon class="cls-2" points="351 0 328.5 14 306 0 306 36 332.25 36 332.25 72 351 72 351 0"/><path class="cls-2" d="M430.5,126h-9.75V304.663C420.75,380.943,365.8,443,298.25,443s-122.5-62.057-122.5-138.337V126h-34V319.5A157.5,157.5,0,0,0,299.25,477h0a157.5,157.5,0,0,0,157.5-157.5V126Z" transform="translate(-124.5 -90)"/><text class="cls-3" transform="translate(26.218 74.047) rotate(90) scale(1.069 1)">U<tspan x="30.133" y="0">N</tspan><tspan x="60.272" y="0">I</tspan><tspan x="79.512" y="0">V</tspan><tspan x="109.628" y="0">E</tspan><tspan x="136.655" y="0">R</tspan></text><text class="cls-3" transform="translate(26.783 252.297) rotate(79.966) scale(1.069 1)">S</text><text class="cls-3" transform="translate(33.341 280.553) rotate(68.821) scale(1.069 1)">I</text><text class="cls-3" transform="matrix(0.572, 0.903, -0.844, 0.536, 42.205, 301.141)">T</text><text class="cls-3" transform="matrix(0.763, 0.748, -0.7, 0.714, 59.904, 326.606)">Y</text><text class="cls-3" transform="translate(84.325 348.318) rotate(34.462) scale(1.069 1)"> </text><text class="cls-3" transform="matrix(0.974, 0.44, -0.412, 0.911, 100.882, 359.11)">O</text><text class="cls-3" transform="translate(132.551 371.719) rotate(12.554) scale(1.069 1)">F</text><text class="cls-3" transform="translate(160.77 376.692) rotate(3.766) scale(1.069 1)"> </text><text class="cls-3" transform="translate(180.364 377.506) rotate(-5.508) scale(1.069 1)">C</text><text class="cls-3" transform="translate(212.613 373.146) rotate(-17.759) scale(1.069 1)">A</text><text class="cls-3" transform="translate(244.67 361.299) rotate(-29.956) scale(1.069 1)">L</text><text class="cls-3" transform="translate(270.858 344.839) rotate(-42.5) scale(1.069 1)">O</text><text class="cls-3" transform="matrix(0.592, -0.89, 0.832, 0.554, 295.227, 320.444)">O</text><text class="cls-3" transform="translate(312.936 290.83) rotate(-70.556) scale(1.069 1)">C</text><text class="cls-3" transform="translate(322.429 259.26) rotate(-85.239) scale(1.069 1)">A</text><text class="cls-3" transform="translate(323.782 226.33) rotate(-90) scale(1.069 1)">N<tspan x="30.124" y="0"> </tspan><tspan x="47.035" y="0">C</tspan><tspan x="75.615" y="0">I</tspan><tspan x="94.874" y="0">T</tspan><tspan x="121.88" y="0">Y</tspan></text><path class="cls-4" d="M299,423h0A112.5,112.5,0,0,1,186.5,310.5V117l31.562,5.26a146.984,146.984,0,0,0,44.957.523L303.5,117l29.728,4.964a146.993,146.993,0,0,0,48.334.016L411.5,117V310.5A112.5,112.5,0,0,1,299,423Z" transform="translate(-124.5 -90)"/><rect class="cls-5" x="80" y="54" width="189" height="104"/><g class="cls-6"><path class="cls-7" d="M408.165,177.249l-97.749,51.823a13.76,13.76,0,0,0,.087-1.474c0-.185-.018-.365-.025-.548l6-5.5L396.027,143.4,369.711,118,308.258,220.186a11.527,11.527,0,0,0-4.627-4.016l13.9-77.041H282.556l12.818,76.839a11.424,11.424,0,0,0-5.072,4.138L228.9,118l-26.316,25.4,79.547,78.148,5.9,5.409c-.01.213-.029.423-.029.638a13.755,13.755,0,0,0,.078,1.415l-97.638-51.764-10.822,36.669L284.238,236.2l8.136,1.413.05-.171a10.387,10.387,0,0,0,13.739-.068l.071.239,8.136-1.413,104.617-22.278Z" transform="translate(-124.5 -90)"/></g><rect class="cls-8" x="80" y="54" width="189" height="104"/><rect class="cls-5" x="82.25" y="135" width="184.5" height="19"/><line class="cls-8" x1="80" y1="135" x2="269" y2="135"/><polygon class="cls-7" points="91 139.073 92.763 144.5 98.47 144.5 93.853 147.854 95.617 153.281 91 149.927 86.383 153.281 88.147 147.854 83.53 144.5 89.237 144.5 91 139.073"/><polygon class="cls-7" points="175 139.073 176.763 144.5 182.47 144.5 177.853 147.854 179.617 153.281 175 149.927 170.383 153.281 172.147 147.854 167.53 144.5 173.237 144.5 175 139.073"/><polygon class="cls-7" points="258 139.073 259.763 144.5 265.47 144.5 260.853 147.854 262.617 153.281 258 149.927 253.383 153.281 255.147 147.854 250.53 144.5 256.237 144.5 258 139.073"/><rect class="cls-5" x="79" y="168.5" width="191" height="15"/><path class="cls-9" d="M203.5,262v42.5c0,52.191,42.757,94.5,95.5,94.5h0c.169,0,.337,0,.5-.006V262Z" transform="translate(-124.5 -90)"/><path class="cls-10" d="M299.505,262V398.994c52.51-.27,95-42.47,95-94.494V262Z" transform="translate(-124.5 -90)"/><text class="cls-11" transform="translate(143.171 320.087) rotate(15.801)">1</text><text class="cls-11" transform="matrix(0.995, 0.102, -0.102, 0.995, 161.431, 324.108)">9</text><text class="cls-11" transform="translate(180.082 324.919) rotate(-3.998)">7</text><text class="cls-11" transform="matrix(0.97, -0.241, 0.241, 0.97, 198.599, 322.523)">1</text><path class="cls-12" d="M374.252,295.317a35.715,35.715,0,0,0,1.173,5.355l.007.024,0,.032a92.578,92.578,0,0,1,.173,12.611,36.216,36.216,0,0,1-1.1,6.245,54.18,54.18,0,0,1-1.882,6.081,22.584,22.584,0,0,1-2.826,5.84c-.21.19-.447.353-.642.548a7.378,7.378,0,0,1-.588.585,14.3,14.3,0,0,1-2.667,1.978c-.472.274-.931.489-1.4.736-1.859.956-3.723,1.9-5.6,2.82-.942.456-1.883.912-2.837,1.346l-1.44.636-.734.3a4.09,4.09,0,0,1-.824.252.192.192,0,0,1-.095-.371l.095-.033a13.119,13.119,0,0,0,1.343-.61l1.376-.728c.914-.5,1.818-1.014,2.721-1.531,1.8-1.043,3.591-2.114,5.374-3.195.438-.271.906-.538,1.322-.812a9.967,9.967,0,0,0,1.173-.873,9.057,9.057,0,0,0,1.041-1.032,4.418,4.418,0,0,0,.833-1.218,21.241,21.241,0,0,0,3.137-5.115,30.783,30.783,0,0,0,1.623-5.921c.421-2.016.484-4.086.849-6.115a77.092,77.092,0,0,0,1-12.386l.009.056a35.6,35.6,0,0,0-1.579-5.25.5.5,0,1,1,.936-.376A.511.511,0,0,1,374.252,295.317Z" transform="translate(-124.5 -90)"/><path class="cls-13" d="M364.919,294.068h0a.473.473,0,0,0-.431.556l.279,1.031c.793,2.923,4.326,4.766,7.891,4.115l1.4-.254a.414.414,0,0,0,.377-.486h0C373.476,295.506,369.217,293.284,364.919,294.068Z" transform="translate(-124.5 -90)"/><path class="cls-14" d="M364.649,295.677l-.28-1.032a.576.576,0,0,1,.523-.674h0c4.36-.8,8.69,1.464,9.659,5.037a.516.516,0,0,1-.469.605l-1.4.255a8.188,8.188,0,0,1-1.463.132C368.136,300,365.346,298.246,364.649,295.677Zm.3-1.512a.373.373,0,0,0-.339.437l.28,1.031a5.434,5.434,0,0,0,2.852,3.336,7.66,7.66,0,0,0,4.893.7l1.4-.255a.313.313,0,0,0,.285-.367,6.579,6.579,0,0,0-3.45-4.034,9.1,9.1,0,0,0-4.2-1.008A9.619,9.619,0,0,0,364.945,294.165Z" transform="translate(-124.5 -90)"/><path class="cls-13" d="M373.785,284.359h0a.457.457,0,0,0-.7-.121l-.772.786c-2.19,2.226-2.123,6.466.15,9.469l.891,1.178a.4.4,0,0,0,.607.105h0C376.606,293.092,376.525,287.98,373.785,284.359Z" transform="translate(-124.5 -90)"/><path class="cls-14" d="M372.242,284.924l.773-.786a.555.555,0,0,1,.843.147h0c2.779,3.673,2.861,8.87.183,11.591a.5.5,0,0,1-.755-.131l-.891-1.178a8.727,8.727,0,0,1-.815-1.3C370.108,290.381,370.317,286.881,372.242,284.924Zm1.47-.491a.359.359,0,0,0-.546-.095l-.772.786a5.988,5.988,0,0,0-1.57,4.361,8.476,8.476,0,0,0,1.717,4.934l.891,1.177a.3.3,0,0,0,.458.08,7.243,7.243,0,0,0,1.9-5.275,10.272,10.272,0,0,0-2.076-5.968Z" transform="translate(-124.5 -90)"/><path class="cls-13" d="M366.44,305.368h0a.474.474,0,0,0-.516.479l.109,1.062c.307,3.013,3.494,5.405,7.117,5.343l1.42-.024a.414.414,0,0,0,.451-.419h0C374.65,308.177,370.808,305.293,366.44,305.368Z" transform="translate(-124.5 -90)"/><path class="cls-14" d="M365.912,306.912l-.108-1.064a.575.575,0,0,1,.626-.58h0c4.431-.077,8.336,2.856,8.712,6.539a.517.517,0,0,1-.561.521l-1.421.024a8.071,8.071,0,0,1-1.465-.107C368.651,311.744,366.183,309.56,365.912,306.912Zm.539-1.444a.373.373,0,0,0-.406.376l.109,1.063a5.431,5.431,0,0,0,2.272,3.755,7.662,7.662,0,0,0,4.714,1.49l1.42-.025a.313.313,0,0,0,.341-.315,6.576,6.576,0,0,0-2.749-4.542,9.09,9.09,0,0,0-3.979-1.676A9.584,9.584,0,0,0,366.451,305.468Z" transform="translate(-124.5 -90)"/><path class="cls-13" d="M364.717,313.069h0a.474.474,0,0,0-.552.437l.027,1.068c.075,3.028,3.069,5.658,6.686,5.874l1.418.084a.413.413,0,0,0,.481-.382h0C372.687,316.5,369.078,313.329,364.717,313.069Z" transform="translate(-124.5 -90)"/><path class="cls-14" d="M364.072,314.567l-.027-1.068a.576.576,0,0,1,.669-.531h0c4.424.264,8.092,3.488,8.184,7.189a.516.516,0,0,1-.6.476l-1.418-.085a8.073,8.073,0,0,1-1.452-.219C366.431,319.6,364.138,317.229,364.072,314.567Zm.647-1.4a.373.373,0,0,0-.433.344l.027,1.068a5.43,5.43,0,0,0,1.977,3.918,7.658,7.658,0,0,0,4.585,1.848l1.418.084a.312.312,0,0,0,.364-.288,6.575,6.575,0,0,0-2.392-4.739,9.086,9.086,0,0,0-3.838-1.977A9.634,9.634,0,0,0,364.719,313.169Z" transform="translate(-124.5 -90)"/><path class="cls-13" d="M362.668,321.335h0a.473.473,0,0,0-.635.3l-.212,1.047c-.6,2.968,1.728,6.2,5.2,7.218l1.364.4a.412.412,0,0,0,.554-.265h0C369.671,326.459,366.861,322.563,362.668,321.335Z" transform="translate(-124.5 -90)"/><path class="cls-14" d="M361.705,322.651l.213-1.047a.576.576,0,0,1,.77-.368h0c4.253,1.245,7.109,5.207,6.372,8.835a.515.515,0,0,1-.69.33l-1.364-.4a8.231,8.231,0,0,1-1.367-.538C362.882,328.08,361.175,325.261,361.705,322.651Zm.943-1.218a.374.374,0,0,0-.5.239l-.212,1.047a5.431,5.431,0,0,0,1.052,4.26,7.657,7.657,0,0,0,4.057,2.825l1.363.4a.315.315,0,0,0,.42-.2,6.575,6.575,0,0,0-1.274-5.154,9.1,9.1,0,0,0-3.3-2.784A9.648,9.648,0,0,0,362.648,321.433Z" transform="translate(-124.5 -90)"/><path class="cls-13" d="M357.717,325.843h0a.473.473,0,0,0-.685.161l-.432.977c-1.223,2.77.362,6.426,3.542,8.164l1.246.682a.415.415,0,0,0,.6-.141h0C363.462,332.346,361.55,327.939,357.717,325.843Z" transform="translate(-124.5 -90)"/><path class="cls-14" d="M356.5,326.923l.431-.978a.576.576,0,0,1,.831-.194h0c3.889,2.125,5.832,6.607,4.336,9.993a.518.518,0,0,1-.746.175l-1.246-.682a8.141,8.141,0,0,1-1.22-.818C356.483,332.477,355.419,329.359,356.5,326.923Zm1.181-.988a.373.373,0,0,0-.538.126l-.432.978a5.437,5.437,0,0,0,.117,4.387,7.669,7.669,0,0,0,3.359,3.627l1.247.681a.313.313,0,0,0,.452-.1,6.575,6.575,0,0,0-.142-5.307,9.09,9.09,0,0,0-2.628-3.426A9.628,9.628,0,0,0,357.676,325.935Z" transform="translate(-124.5 -90)"/><path class="cls-13" d="M375.63,303.64h0a.473.473,0,0,0,.439.55l1.068-.029c3.027-.082,5.65-3.081,5.858-6.7l.082-1.418a.413.413,0,0,0-.383-.481h0C379.043,295.662,375.881,299.278,375.63,303.64Z" transform="translate(-124.5 -90)"/><path class="cls-14" d="M377.13,304.281l-1.068.029a.576.576,0,0,1-.533-.667h0c.255-4.425,3.471-8.1,7.172-8.2a.516.516,0,0,1,.477.6l-.082,1.418a8.093,8.093,0,0,1-.216,1.454C382.153,301.911,379.792,304.209,377.13,304.281Zm-1.4-.644a.373.373,0,0,0,.344.433l1.068-.03a5.432,5.432,0,0,0,3.914-1.986,7.655,7.655,0,0,0,1.838-4.589l.081-1.418a.312.312,0,0,0-.289-.363,6.575,6.575,0,0,0-4.734,2.4,9.11,9.11,0,0,0-1.969,3.842A9.652,9.652,0,0,0,375.731,303.637Z" transform="translate(-124.5 -90)"/><path class="cls-13" d="M375.7,314.386h0a.473.473,0,0,0,.259.654l1.029.285c2.919.807,6.305-1.294,7.562-4.692l.493-1.333a.413.413,0,0,0-.226-.571h0C381.3,307.755,377.219,310.288,375.7,314.386Z" transform="translate(-124.5 -90)"/><path class="cls-14" d="M376.95,315.438l-1.03-.285a.575.575,0,0,1-.313-.794h0c1.537-4.156,5.688-6.731,9.256-5.744a.516.516,0,0,1,.281.712l-.493,1.333a8.2,8.2,0,0,1-.632,1.326C382.447,314.641,379.517,316.148,376.95,315.438Zm-1.149-1.025a.372.372,0,0,0,.2.514l1.03.285a5.436,5.436,0,0,0,4.323-.755,7.654,7.654,0,0,0,3.1-3.851l.492-1.332a.312.312,0,0,0-.17-.432,6.569,6.569,0,0,0-5.229.913,9.093,9.093,0,0,0-3.007,3.1A9.7,9.7,0,0,0,375.8,314.413Z" transform="translate(-124.5 -90)"/><path class="cls-13" d="M373.072,324.272h0a.474.474,0,0,0-.032.7l.823.681c2.334,1.931,6.283,1.4,8.82-1.189l1-1.015a.414.414,0,0,0,.027-.614h0C380.891,320.511,376.131,321.153,373.072,324.272Z" transform="translate(-124.5 -90)"/><path class="cls-14" d="M373.779,325.742l-.823-.681a.576.576,0,0,1,.038-.853h0c3.1-3.164,7.943-3.816,10.8-1.456a.517.517,0,0,1-.035.765l-.994,1.014a8.21,8.21,0,0,1-1.119.952C379.122,327.263,375.831,327.439,373.779,325.742Zm-.629-1.405a.371.371,0,0,0-.025.552l.823.681a5.436,5.436,0,0,0,4.254,1.079,7.656,7.656,0,0,0,4.4-2.246l1-1.015a.313.313,0,0,0,.021-.464,6.577,6.577,0,0,0-5.145-1.3,9.084,9.084,0,0,0-4.011,1.6A9.558,9.558,0,0,0,373.15,324.337Z" transform="translate(-124.5 -90)"/><path class="cls-13" d="M367.22,332.875h0a.474.474,0,0,0-.215.67l.615.873c1.743,2.477,5.693,3,8.822,1.173l1.226-.716a.414.414,0,0,0,.188-.586h0C375.754,331.3,370.992,330.67,367.22,332.875Z" transform="translate(-124.5 -90)"/><path class="cls-14" d="M367.516,334.479l-.615-.874a.576.576,0,0,1,.261-.813h0c3.826-2.236,8.668-1.591,10.8,1.436a.517.517,0,0,1-.235.729l-1.226.717a8.236,8.236,0,0,1-1.331.624C372.27,337.351,369.049,336.656,367.516,334.479Zm-.238-1.522a.372.372,0,0,0-.169.526l.615.874a5.437,5.437,0,0,0,3.82,2.161,7.656,7.656,0,0,0,4.839-1.009l1.227-.717a.313.313,0,0,0,.142-.442,6.574,6.574,0,0,0-4.62-2.613,9.082,9.082,0,0,0-4.29.486A9.585,9.585,0,0,0,367.278,332.957Z" transform="translate(-124.5 -90)"/><path class="cls-13" d="M359.534,337.473h0a.473.473,0,0,0-.521.472l.1,1.064c.273,3.017,3.432,5.445,7.056,5.424l1.421-.009a.413.413,0,0,0,.455-.413h0C367.712,340.375,363.9,337.447,359.534,337.473Z" transform="translate(-124.5 -90)"/><path class="cls-14" d="M358.989,339.01l-.1-1.064a.577.577,0,0,1,.633-.574h0c4.431-.026,8.3,2.952,8.637,6.639a.517.517,0,0,1-.567.514l-1.421.008a8.135,8.135,0,0,1-1.464-.124C361.672,343.873,359.229,341.662,358.989,339.01Zm.554-1.437a.373.373,0,0,0-.41.371l.1,1.064a5.434,5.434,0,0,0,2.229,3.781,7.659,7.659,0,0,0,4.7,1.543l1.42-.008a.313.313,0,0,0,.345-.312,6.576,6.576,0,0,0-2.7-4.572,9.1,9.1,0,0,0-3.96-1.722A9.658,9.658,0,0,0,359.543,337.573Z" transform="translate(-124.5 -90)"/><path class="cls-12" d="M318.969,295.568a35.6,35.6,0,0,0-1.579,5.25l.009-.056a77.092,77.092,0,0,0,1,12.386c.366,2.029.428,4.1.849,6.115a30.783,30.783,0,0,0,1.623,5.921A21.241,21.241,0,0,0,324,330.3a4.418,4.418,0,0,0,.833,1.218,9.138,9.138,0,0,0,1.041,1.032,9.9,9.9,0,0,0,1.174.873c.415.274.883.541,1.321.812,1.783,1.081,3.571,2.152,5.374,3.195.9.517,1.807,1.036,2.721,1.531l1.376.728a13.119,13.119,0,0,0,1.343.61l.095.033a.192.192,0,0,1-.095.371,4.09,4.09,0,0,1-.824-.252l-.734-.3-1.44-.636c-.954-.434-1.9-.89-2.837-1.346-1.881-.918-3.745-1.864-5.6-2.82-.466-.247-.925-.462-1.4-.736a14.3,14.3,0,0,1-2.667-1.978,7.378,7.378,0,0,1-.588-.585c-.195-.195-.432-.358-.642-.548a22.584,22.584,0,0,1-2.826-5.84,54.18,54.18,0,0,1-1.882-6.081,36.216,36.216,0,0,1-1.1-6.245,92.578,92.578,0,0,1,.173-12.611l0-.032.007-.024A35.715,35.715,0,0,0,318,295.317a.5.5,0,1,1,1,.126A.51.51,0,0,1,318.969,295.568Z" transform="translate(-124.5 -90)"/><path class="cls-13" d="M327.334,294.068h0a.473.473,0,0,1,.431.556l-.279,1.031c-.793,2.923-4.326,4.766-7.891,4.115l-1.4-.254a.414.414,0,0,1-.377-.486h0C318.777,295.506,323.036,293.284,327.334,294.068Z" transform="translate(-124.5 -90)"/><path class="cls-14" d="M321.032,300a8.188,8.188,0,0,1-1.463-.132l-1.4-.255a.517.517,0,0,1-.469-.605c.969-3.573,5.3-5.833,9.659-5.037h0a.576.576,0,0,1,.523.674l-.28,1.032C326.907,298.246,324.117,300,321.032,300Zm4.556-5.991a9.1,9.1,0,0,0-4.2,1.008,6.579,6.579,0,0,0-3.45,4.034.313.313,0,0,0,.285.367l1.4.255a7.66,7.66,0,0,0,4.893-.7,5.434,5.434,0,0,0,2.852-3.336l.28-1.031a.373.373,0,0,0-.339-.437A9.619,9.619,0,0,0,325.588,294.009Z" transform="translate(-124.5 -90)"/><path class="cls-13" d="M318.468,284.359h0a.457.457,0,0,1,.695-.121l.772.786c2.19,2.226,2.123,6.466-.15,9.469l-.891,1.178a.4.4,0,0,1-.607.105h0C315.647,293.092,315.728,287.98,318.468,284.359Z" transform="translate(-124.5 -90)"/><path class="cls-14" d="M320.673,293.266a8.727,8.727,0,0,1-.815,1.3l-.891,1.178a.5.5,0,0,1-.755.131c-2.678-2.721-2.6-7.918.183-11.591h0a.555.555,0,0,1,.843-.147l.773.786C321.936,286.881,322.145,290.381,320.673,293.266Zm-3.09-7.3a10.154,10.154,0,0,0-1.118,4.438,7.243,7.243,0,0,0,1.9,5.275.3.3,0,0,0,.459-.08l.89-1.177a8.476,8.476,0,0,0,1.717-4.934,5.988,5.988,0,0,0-1.57-4.361l-.772-.786a.359.359,0,0,0-.546.095A10.206,10.206,0,0,0,317.583,285.963Z" transform="translate(-124.5 -90)"/><path class="cls-13" d="M325.813,305.368h0a.474.474,0,0,1,.516.479l-.109,1.062c-.307,3.013-3.494,5.405-7.117,5.343l-1.42-.024a.414.414,0,0,1-.451-.419h0C317.6,308.177,321.445,305.293,325.813,305.368Z" transform="translate(-124.5 -90)"/><path class="cls-14" d="M320.558,312.245a8.071,8.071,0,0,1-1.465.107l-1.42-.024a.517.517,0,0,1-.562-.521c.376-3.683,4.281-6.616,8.712-6.539h0a.575.575,0,0,1,.626.58l-.108,1.064C326.07,309.56,323.6,311.744,320.558,312.245Zm3.522-6.651a9.09,9.09,0,0,0-3.979,1.676,6.576,6.576,0,0,0-2.749,4.542.313.313,0,0,0,.341.315l1.421.025a7.661,7.661,0,0,0,4.713-1.49,5.436,5.436,0,0,0,2.273-3.755l.108-1.063a.372.372,0,0,0-.405-.376A9.589,9.589,0,0,0,324.08,305.594Z" transform="translate(-124.5 -90)"/><path class="cls-13" d="M327.536,313.069h0a.474.474,0,0,1,.552.437l-.027,1.068c-.075,3.028-3.069,5.658-6.686,5.874l-1.418.084a.413.413,0,0,1-.481-.382h0C319.566,316.5,323.175,313.329,327.536,313.069Z" transform="translate(-124.5 -90)"/><path class="cls-14" d="M322.825,320.329a8.073,8.073,0,0,1-1.452.219l-1.418.085a.517.517,0,0,1-.6-.476c.092-3.7,3.761-6.925,8.184-7.189h0a.576.576,0,0,1,.669.531l-.027,1.068C328.115,317.229,325.822,319.6,322.825,320.329Zm3-6.9a9.086,9.086,0,0,0-3.838,1.977,6.575,6.575,0,0,0-2.392,4.739.312.312,0,0,0,.364.288l1.418-.084a7.658,7.658,0,0,0,4.585-1.848,5.43,5.43,0,0,0,1.977-3.918l.027-1.068a.373.373,0,0,0-.433-.344A9.634,9.634,0,0,0,325.826,313.427Z" transform="translate(-124.5 -90)"/><path class="cls-13" d="M329.585,321.335h0a.473.473,0,0,1,.635.3l.212,1.047c.6,2.968-1.728,6.2-5.205,7.218l-1.364.4a.412.412,0,0,1-.554-.265h0C322.582,326.459,325.392,322.563,329.585,321.335Z" transform="translate(-124.5 -90)"/><path class="cls-14" d="M326.614,329.464a8.231,8.231,0,0,1-1.367.538l-1.363.4a.516.516,0,0,1-.691-.33c-.737-3.628,2.119-7.59,6.372-8.835h0a.575.575,0,0,1,.77.368l.213,1.047C331.078,325.261,329.371,328.08,326.614,329.464Zm1.383-7.4a9.1,9.1,0,0,0-3.3,2.784A6.575,6.575,0,0,0,323.424,330a.315.315,0,0,0,.42.2l1.363-.4a7.657,7.657,0,0,0,4.057-2.825,5.431,5.431,0,0,0,1.052-4.26l-.212-1.047a.374.374,0,0,0-.5-.239A9.648,9.648,0,0,0,328,322.066Z" transform="translate(-124.5 -90)"/><path class="cls-13" d="M334.536,325.843h0a.473.473,0,0,1,.685.161l.432.977c1.223,2.77-.362,6.426-3.542,8.164l-1.246.682a.415.415,0,0,1-.6-.141h0C328.791,332.346,330.7,327.939,334.536,325.843Z" transform="translate(-124.5 -90)"/><path class="cls-14" d="M333.372,334.419a8.09,8.09,0,0,1-1.22.818l-1.246.682a.518.518,0,0,1-.746-.175c-1.5-3.386.447-7.868,4.336-9.993h0a.576.576,0,0,1,.831.194l.432.978C336.834,329.359,335.77,332.477,333.372,334.419Zm-.23-7.523a9.11,9.11,0,0,0-2.628,3.426,6.575,6.575,0,0,0-.142,5.307.313.313,0,0,0,.453.1l1.246-.681a7.669,7.669,0,0,0,3.359-3.627,5.437,5.437,0,0,0,.117-4.387l-.432-.978a.373.373,0,0,0-.538-.126A9.628,9.628,0,0,0,333.142,326.9Z" transform="translate(-124.5 -90)"/><path class="cls-13" d="M316.623,303.64h0a.473.473,0,0,1-.439.55l-1.068-.029c-3.027-.082-5.65-3.081-5.858-6.7l-.082-1.418a.413.413,0,0,1,.383-.481h0C313.21,295.662,316.372,299.278,316.623,303.64Z" transform="translate(-124.5 -90)"/><path class="cls-14" d="M309.373,298.913a8.093,8.093,0,0,1-.216-1.454l-.082-1.418a.516.516,0,0,1,.477-.6c3.7.1,6.918,3.775,7.172,8.2h0a.576.576,0,0,1-.532.667l-1.069-.029C312.462,304.209,310.1,301.911,309.373,298.913Zm6.9,3.015a9.11,9.11,0,0,0-1.969-3.842,6.575,6.575,0,0,0-4.734-2.4.312.312,0,0,0-.289.363l.081,1.418a7.655,7.655,0,0,0,1.838,4.589,5.432,5.432,0,0,0,3.914,1.986l1.068.03a.373.373,0,0,0,.344-.433A9.652,9.652,0,0,0,316.269,301.928Z" transform="translate(-124.5 -90)"/><path class="cls-13" d="M316.549,314.386h0a.473.473,0,0,1-.258.654l-1.03.285c-2.919.807-6.305-1.294-7.562-4.692l-.493-1.333a.413.413,0,0,1,.226-.571h0C310.952,307.755,315.034,310.288,316.549,314.386Z" transform="translate(-124.5 -90)"/><path class="cls-14" d="M308.234,311.986a8.2,8.2,0,0,1-.632-1.326l-.493-1.333a.516.516,0,0,1,.281-.712c3.569-.987,7.719,1.588,9.257,5.744h0a.576.576,0,0,1-.314.794l-1.03.285C312.736,316.148,309.806,314.641,308.234,311.986Zm7.476.867a9.093,9.093,0,0,0-3.007-3.1,6.569,6.569,0,0,0-5.229-.913.312.312,0,0,0-.17.432l.492,1.332a7.654,7.654,0,0,0,3.1,3.851,5.436,5.436,0,0,0,4.323.755l1.03-.285a.372.372,0,0,0,.2-.514A9.7,9.7,0,0,0,315.71,312.853Z" transform="translate(-124.5 -90)"/><path class="cls-13" d="M319.181,324.272h0a.474.474,0,0,1,.032.7l-.823.681c-2.334,1.931-6.283,1.4-8.82-1.189l-.994-1.015a.413.413,0,0,1-.028-.614h0C311.362,320.511,316.122,321.153,319.181,324.272Z" transform="translate(-124.5 -90)"/><path class="cls-14" d="M310.611,325.483a8.21,8.21,0,0,1-1.119-.952l-.994-1.014a.517.517,0,0,1-.035-.765c2.853-2.36,7.694-1.708,10.8,1.456h0a.576.576,0,0,1,.038.853l-.823.681C316.422,327.439,313.132,327.263,310.611,325.483Zm7.177-2.266a9.084,9.084,0,0,0-4.011-1.6,6.577,6.577,0,0,0-5.145,1.3.313.313,0,0,0,.021.464l1,1.015a7.659,7.659,0,0,0,4.4,2.246,5.436,5.436,0,0,0,4.254-1.079l.824-.681a.372.372,0,0,0-.026-.552A9.5,9.5,0,0,0,317.788,323.217Z" transform="translate(-124.5 -90)"/><path class="cls-13" d="M325.033,332.875h0a.473.473,0,0,1,.215.67l-.615.873c-1.743,2.477-5.693,3-8.821,1.173l-1.227-.716a.414.414,0,0,1-.188-.586h0C316.5,331.3,321.261,330.67,325.033,332.875Z" transform="translate(-124.5 -90)"/><path class="cls-14" d="M317.084,336.3a8.236,8.236,0,0,1-1.331-.624l-1.226-.717a.516.516,0,0,1-.234-.729c2.131-3.027,6.972-3.672,10.8-1.436h0a.577.577,0,0,1,.262.813l-.616.874C323.2,336.656,319.983,337.351,317.084,336.3Zm6.327-4.075a9.082,9.082,0,0,0-4.29-.486,6.574,6.574,0,0,0-4.62,2.613.312.312,0,0,0,.143.442l1.226.717a7.656,7.656,0,0,0,4.839,1.009,5.437,5.437,0,0,0,3.82-2.161l.615-.874a.372.372,0,0,0-.169-.526A9.585,9.585,0,0,0,323.411,332.223Z" transform="translate(-124.5 -90)"/><path class="cls-13" d="M332.719,337.473h0a.472.472,0,0,1,.521.472l-.1,1.064c-.273,3.017-3.432,5.445-7.056,5.424l-1.42-.009a.413.413,0,0,1-.456-.413h0C324.542,340.375,328.35,337.447,332.719,337.473Z" transform="translate(-124.5 -90)"/><path class="cls-14" d="M327.543,344.409a8.135,8.135,0,0,1-1.464.124l-1.421-.008a.517.517,0,0,1-.567-.514c.334-3.687,4.206-6.665,8.637-6.639h0a.577.577,0,0,1,.633.574l-.1,1.064C333.024,341.662,330.581,343.873,327.543,344.409Zm3.446-6.691a9.1,9.1,0,0,0-3.96,1.722,6.576,6.576,0,0,0-2.7,4.572.314.314,0,0,0,.345.312l1.42.008a7.659,7.659,0,0,0,4.7-1.543,5.434,5.434,0,0,0,2.229-3.781l.1-1.064a.373.373,0,0,0-.41-.371A9.658,9.658,0,0,0,330.989,337.718Z" transform="translate(-124.5 -90)"/><g id="torch"><path class="cls-15" d="M333.826,306.787s-6.19-5.352,0-15.815A133.275,133.275,0,0,1,346.586,273s0,13.139,3.754,10.324a7.267,7.267,0,0,0,.938-2.816s17.832,20.648,5.632,26.279" transform="translate(-124.5 -90)"/><path class="cls-16" d="M346.586,289.893s10.324,9.386,6.57,16.894h-13.14s-.938-3.754.939-6.57,4.692-8.447,4.692-8.447Z" transform="translate(-124.5 -90)"/><path class="cls-17" d="M337.221,317.11h17.812l-8,46.7a.934.934,0,0,1-1.841,0Z" transform="translate(-124.5 -90)"/><rect class="cls-17" x="208.947" y="217.256" width="25.34" height="9.854" rx="2.42"/></g><path class="cls-18" d="M264.077,274h-4.715a3.488,3.488,0,0,1,1.886,2.829V280.6h2.829Z" transform="translate(-124.5 -90)"/><rect class="cls-19" x="134.391" y="190.13" width="6.601" height="1.886"/><polygon class="cls-20" points="143.821 253.311 131.562 253.311 133.448 192.016 141.935 192.016 143.821 253.311"/><polyline class="cls-21" points="129.676 241.052 126.847 241.052 127.79 242.938 129.676 243.881 129.676 245.988 131.562 245.767 130.619 242.938 129.676 241.052"/><path class="cls-22" d="M261.5,332.8h-1.849l-.925.92-.925.919-.925-.919-1.85.919-.925.92-.924,1.839-1.85,1.838c-1.85.92.925,3.678.925,3.678l-1.85,1.839v.46l24.047.459-1.85-1.838-.925-.92.925-3.678-1.85-.919L270,335.555h-2.027l-1.849-3.678-6.474-4.6Z" transform="translate(-124.5 -90)"/><polygon class="cls-23" points="157.966 275 117.417 275 119.774 264.155 155.609 264.155 157.966 275"/><polygon class="cls-23" points="149.951 254.725 144.293 254.725 144.293 252.839 141.464 252.839 141.464 250.953 133.919 250.953 133.919 252.839 131.09 252.839 131.09 254.725 125.432 254.725 124.489 268.87 150.894 268.87 149.951 254.725"/></svg>